<?xml version="1.0" encoding="utf-8"?>
<!-- Generator: Adobe Illustrator 16.0.0, SVG Export Plug-In . SVG Version: 6.00 Build 0)  -->
<!DOCTYPE svg PUBLIC "-//W3C//DTD SVG 1.0//EN" "http://www.w3.org/TR/2001/REC-SVG-20010904/DTD/svg10.dtd">
<svg version="1.0" id="Layer_3" xmlns="http://www.w3.org/2000/svg" xmlns:xlink="http://www.w3.org/1999/xlink" x="0px" y="0px"
	 width="91px" height="87.667px" viewBox="0 0 91 87.667" enable-background="new 0 0 91 87.667" xml:space="preserve">
<g>
	<g>
		<path fill="#FFFFFF" d="M26.342,69.077c-0.583,0-1.055-0.472-1.055-1.055V22.324c0-0.583,0.472-1.055,1.055-1.055
			s1.054,0.472,1.054,1.055v45.698C27.396,68.605,26.925,69.077,26.342,69.077L26.342,69.077z"/>
	</g>
	<g>
		<path fill="#FFFFFF" d="M59.612,62.48c-4.297,0-8.531-1.995-12.628-3.925c-4.066-1.914-7.905-3.723-11.73-3.723
			c-2.982,0-5.664,1.156-8.189,3.536c-0.307,0.29-0.754,0.37-1.141,0.201c-0.387-0.167-0.636-0.547-0.636-0.968V26.064
			c0-0.291,0.12-0.568,0.332-0.768c2.937-2.766,6.088-4.111,9.635-4.111c4.296,0,8.531,1.995,12.628,3.925
			c4.066,1.915,7.905,3.723,11.73,3.723c2.982,0,5.664-1.156,8.189-3.537c0.346-0.326,0.869-0.381,1.273-0.132
			c0.408,0.249,0.595,0.738,0.461,1.194c-1.965,6.75-3.996,12.965-6.202,18.985c2.165,4.884,4.154,8.709,6.076,11.687
			c0.276,0.427,0.208,0.991-0.163,1.338C66.31,61.136,63.158,62.48,59.612,62.48L59.612,62.48z M35.254,52.724
			c4.296,0,8.531,1.995,12.628,3.925c4.066,1.915,7.905,3.723,11.73,3.723c2.731,0,5.207-0.969,7.544-2.959
			c-1.882-3.033-3.825-6.842-5.926-11.607c-0.109-0.25-0.119-0.534-0.024-0.79c1.899-5.153,3.666-10.448,5.372-16.1
			c-2.167,1.36-4.47,2.027-6.966,2.027c-4.297,0-8.531-1.995-12.628-3.925c-4.066-1.915-7.905-3.723-11.73-3.723
			c-2.854,0-5.429,1.059-7.858,3.233v28.825C29.825,53.587,32.412,52.724,35.254,52.724L35.254,52.724z"/>
	</g>
</g>
</svg>
