<?xml version="1.0" encoding="utf-8"?>
<!-- Generator: Adobe Illustrator 19.0.0, SVG Export Plug-In . SVG Version: 6.00 Build 0)  -->
<svg version="1.1" id="Layer_1" xmlns="http://www.w3.org/2000/svg" xmlns:xlink="http://www.w3.org/1999/xlink" x="0px" y="0px"
	 viewBox="88 372 771 98.9" style="enable-background:new 88 372 771 98.9;" xml:space="preserve">
<style type="text/css">
	.st0{fill:#F59A84;}
	.st1{fill:none;}
	.st2{fill:#FFFFFF;}
	.st3{font-family:'OpenSans';}
	.st4{font-size:10px;}
	.st5{font-size:18px;}
	.st6{fill:#95CEA8;}
</style>
<polygon id="XMLID_10_" class="st0" points="522.4,466.1 101.5,466.1 101.5,380.1 400.3,380.1 "/>
<rect id="XMLID_2_" x="130.4" y="426.9" class="st1" width="282.2" height="61.5"/>
<text transform="matrix(1 0 0 1 130.3823 434.461)" class="st2 st3 st4">Lorem ipsum dolor sit amet, consectetuer adipiscing elit, </text>
<text transform="matrix(1 0 0 1 130.3823 446.461)" class="st2 st3 st4">sed diam nonummy nibh euismod tincidunt ut laoreet </text>
<text transform="matrix(1 0 0 1 130.3823 458.461)" class="st2 st3 st4">dolore magna aliquam erat volutpat.</text>
<g id="XMLID_114_">
	<path id="XMLID_121_" class="st2" d="M154.2,414.3c-0.8,0.7-1.8,1.2-2.8,1.7c0.3-0.5,0.6-1,0.9-1.6c-0.5,0.1-1.1,0.2-1.6,0.2
		c-0.4,0-0.8,0-1.1-0.1c-1.1,1.7-2.4,2.6-3.6,2.6c-2.1,0-4.3-2.8-5.5-7h2.6c-0.3-0.5-0.6-1.1-0.7-1.7c-0.1-0.2-0.1-0.4-0.2-0.6H140
		c-0.2-1.2-0.3-2.6-0.3-4c0-1.2,0.1-2.4,0.2-3.5h4c0.8-1,1.8-1.8,2.9-2.3h-6.4c1.1-4.5,3.5-7.5,5.6-7.5c2,0,4.2,2.6,5.4,6.6
		c0.9,0.1,1.8,0.3,2.6,0.6c-0.6-2.3-1.4-4.4-2.5-6c2.8,1.3,5.1,3.5,6.5,6.3h-3.3c1.1,0.6,2.1,1.4,2.9,2.3h1.3
		c0.3,1.1,0.5,2.3,0.5,3.5c0,0.1,0,0.1,0,0.2c0.3,1.6,0.2,3.2-0.3,4.8l1.3,1.4v-0.1h0.2v-0.4c0.8-1.8,1.2-3.8,1.2-5.9
		c0-8.6-7-15.6-15.6-15.6s-15.6,7-15.6,15.6s7,15.6,15.6,15.6c3.7,0,7.1-1.3,9.8-3.5L154.2,414.3z M140.6,391.7
		c-1.1,1.7-2,3.8-2.6,6.3h-3.9C135.4,395.2,137.7,393,140.6,391.7z M132.7,403.8c0-1.2,0.2-2.4,0.5-3.5h4.4
		c-0.1,1.1-0.2,2.3-0.2,3.5c0,1.4,0.1,2.7,0.3,4h-4.3C132.9,406.6,132.7,405.2,132.7,403.8z M134.3,410.1h3.8
		c0.6,2.3,1.4,4.3,2.5,5.8C137.9,414.8,135.7,412.7,134.3,410.1z"/>
	<path id="XMLID_118_" class="st2" d="M162.6,415.6l-5.9-6.4c0,0,0,0-0.1,0c0.9-1.6,1.2-3.5,0.6-5.4c-1.1-3.6-4.9-5.6-8.5-4.5
		s-5.6,4.9-4.5,8.5s4.9,5.6,8.5,4.5c0.6-0.2,1.1-0.4,1.6-0.7l5.8,6.3c0.2,0.2,0.6,0.1,0.8-0.2l1.4-1.2
		C162.6,416.2,162.7,415.8,162.6,415.6z M146,407.3c-0.8-2.6,0.6-5.4,3.3-6.2c2.6-0.8,5.4,0.6,6.2,3.3c0.8,2.6-0.6,5.4-3.2,6.2
		C149.6,411.4,146.8,409.9,146,407.3z"/>
	<g id="XMLID_115_">
		<path id="XMLID_129_" class="st2" d="M148.4,403.8c2.7-0.8,5.5,0.6,6.3,3.3"/>
	</g>
</g>
<text id="XMLID_113_" transform="matrix(1 0 0 1 175.9282 419.4727)" class="st2 st3 st5">OPTION A</text>
<polygon id="XMLID_8_" class="st6" points="426.5,380.1 845.5,380.1 845.5,466.1 548.6,466.1 "/>
<rect id="XMLID_1_" x="538.8" y="426.9" class="st1" width="282.2" height="61.5"/>
<text transform="matrix(1 0 0 1 557.8364 434.461)" class="st2 st3 st4">Lorem ipsum dolor sit amet, consectetuer adipiscing elit, </text>
<text transform="matrix(1 0 0 1 569.1894 446.461)" class="st2 st3 st4">sed diam nonummy nibh euismod tincidunt ut laoreet </text>
<text transform="matrix(1 0 0 1 650.4784 458.461)" class="st2 st3 st4">dolore magna aliquam erat volutpat.</text>
<text id="XMLID_112_" transform="matrix(1 0 0 1 691.0562 419.4727)" class="st2 st3 st5">OPTION B</text>
<g id="XMLID_105_">
	<polygon id="XMLID_111_" class="st2" points="796.3,420.3 796.3,407.8 789.6,414.4 789,413.8 789,420.3 	"/>
	<polygon id="XMLID_110_" class="st2" points="804.8,420.3 804.8,409.9 799.5,404.1 797.5,406.1 797.5,420.3 	"/>
	<polygon id="XMLID_109_" class="st2" points="813.3,420.3 813.3,406.7 807.1,412.4 806.1,411.2 806.1,420.3 	"/>
	<polygon id="XMLID_108_" class="st2" points="821.8,420.3 821.8,398.9 814.6,405.5 814.6,420.3 	"/>
	<path id="XMLID_107_" class="st2" d="M821.7,391.7l-14.2,12.9l-6.6-6.8c-0.3-0.3-0.7-0.5-1.1-0.5c-0.4,0-0.8,0.2-1.1,0.5l-9.5,9.6
		v3.3l0.6,0.6l10-10.2l6.6,6.8c0.6,0.6,1.6,0.6,2.2,0.1l13.4-12.2v-4L821.7,391.7z"/>
</g>
</svg>
